<svg version="1.1" id="logo" xmlns="http://www.w3.org/2000/svg" xmlns:xlink="http://www.w3.org/1999/xlink" x="0px" y="0px"
	 width="500px" height="500px" viewBox="0 0 500 500" enable-background="new 0 0 500 500" xml:space="preserve">
<rect id="frame" x="10" y="10" fill="none" stroke="#000000" stroke-width="10" stroke-miterlimit="10" width="480" height="480"/>
<g>
	<path fill="#000000" d="M101.976,251.739c0-15.14,11.457-26.085,25.676-26.085s26.904,8.695,24.96,28.438h-45.521
		c1.022,11.866,10.127,18.72,20.561,18.72c6.649,0,14.423-2.659,18.208-7.672l3.58,2.864c-4.91,6.444-13.707,9.718-21.789,9.718
		C113.433,277.722,101.976,267.8,101.976,251.739z M148.111,249.693c-0.102-12.48-8.286-19.437-20.459-19.437
		c-10.434,0-19.436,7.059-20.561,19.437H148.111z"/>
	<path fill="#000000" d="M200.283,235.679c-5.115-4.501-10.127-5.319-15.753-5.319c-7.877-0.103-15.446,2.864-15.242,9.309
		c0.205,6.752,9.002,8.082,15.345,9.207c9.002,1.534,21.379,3.068,20.868,14.832c-0.307,11.15-11.866,14.117-20.766,14.117
		s-17.697-3.376-22.096-10.127l3.683-3.273c4.194,6.035,11.764,8.593,18.515,8.593c6.138,0,15.447-1.637,15.754-9.616
		c0.204-7.263-8.184-8.695-16.47-10.024c-9.82-1.637-19.538-3.479-19.641-13.605c-0.103-9.923,9.82-14.219,20.05-14.117
		c7.365,0,13.81,2.046,18.822,6.751L200.283,235.679z"/>
	<path fill="#000000" d="M223.3,210.003c0,5.319-8.082,5.319-8.082,0S223.3,204.684,223.3,210.003z M216.651,226.268v50.738h5.012
		v-50.738H216.651z"/>
	<path fill="#000000" d="M270.663,235.679c-5.115-4.501-10.127-5.319-15.754-5.319c-7.876-0.103-15.446,2.864-15.241,9.309
		c0.204,6.752,9.002,8.082,15.344,9.207c9.002,1.534,21.38,3.068,20.868,14.832c-0.307,11.15-11.866,14.117-20.766,14.117
		s-17.697-3.376-22.096-10.127l3.683-3.273c4.194,6.035,11.764,8.593,18.516,8.593c6.138,0,15.446-1.637,15.753-9.616
		c0.205-7.263-8.184-8.695-16.47-10.024c-9.82-1.637-19.538-3.479-19.64-13.605c-0.102-9.923,9.82-14.219,20.049-14.117
		c7.365,0,13.811,2.046,18.822,6.751L270.663,235.679z"/>
	<path fill="#000000" d="M284.678,251.842c0-16.061,11.457-26.29,25.677-26.29c14.219,0,25.676,10.229,25.676,26.29
		c0,16.06-11.457,25.88-25.676,25.88C296.135,277.722,284.678,267.901,284.678,251.842z M331.12,251.842
		c0-13.094-9.309-21.585-20.766-21.585s-20.767,8.491-20.767,21.585c0,13.094,9.31,20.97,20.767,20.97
		S331.12,264.936,331.12,251.842z"/>
	<path fill="#000000" d="M352.501,226.472v9.002c3.888-6.956,10.946-9.82,18.004-9.922c13.503,0,22.812,8.286,22.812,22.3v29.154
		h-5.012v-29.052c0-11.457-7.059-17.595-18.004-17.492c-10.435,0.102-17.697,7.979-17.697,18.413v28.131h-5.013v-50.534H352.501z"/>
</g>
</svg>
